<svg xmlns="http://www.w3.org/2000/svg" viewBox="0 0 38 38" enable-background="new 0 0 38 38"><g fill="#fff"><path d="m24.2 25.6c-3.3 2.5-4 2.5-4.3 2.5h-.5l-.5-.4c-.1-.1-.1-.2-.2-.3-.1 0-.1 0-.2 0-.3 0-.5 0-.7.1-.2.1-.4.2-.6.2-.1 0-.2 0-.3-.1-.1-.1-.3-.1-.4-.2-.1.1-.3.1-.4.1-.3 0-.5-.1-.7-.3-.1 0-.1 0-.2 0-.3 0-.5-.1-.7-.3-.3.4-.6.8-1 1.2-.2.2-.4.3-.7.3-.3 0-.6-.2-.8-.5-.1-.3-.1-.5.1-.8.8-1 1.6-2 2.5-2.9l.2-.2c.4-.4.9-.9 1.5-.9.3 0 .6.1.8.4.2.4.1.9-.1 1.5.2 0 .6.2.8.6.2 0 .3 0 .5 0 .1 0 .2 0 .4 0 .3-.8 1-1.8 2.2-3.4l.1-.1 7-7v-8.1h-19v24h19v-9.2l-3.8 3.8m-11.2-14.6h11v1h-11v-1m0 3h9v1h-9v-1m0 3h5v1h-5v-1"/><path d="m20 26.5c.2-.5 1.1-2 2.1-3.2l9.9-9.9c.2-.2.4-.3.7-.3.1 0 .2 0 .2.1l.5.5c.1.1.1.3.1.4 0 .2-.1.4-.3.5l-1.6 1.6 1.4 1.4-3.3 3.3-.4-.4 2.8-2.8-1-1-7.9 7.9c-1.2.8-2.7 1.7-3.2 1.9"/></g></svg>