<svg xmlns="http://www.w3.org/2000/svg" viewBox="0 0 38 38" enable-background="new 0 0 38 38"><g fill="#fff"><path d="m3 28.1c0 0 3.7-4 4.8-5.1 1.1-1 2.3-2.5 4.4-2.5 1.6 0 2.6.2 4.2.7 1.2.1 3.5.7 4.6.7s2.8 0 2.8 1.2c0 1.3-1.1 1.7-2.7 1.7-1.6 0-6.5.8-6.5.8s3 1.4 3.5 1.4 3.3-.1 4.4 0c.8-.8 5.8-4.1 6.4-4.6s2.5-1.9 3.6-1.8 2 .7.5 2c-1.5 1.2-7.2 6.5-8.1 7.2-.9.7-1.5 1.2-4 1.2s-8.6 0-9.7 0c-.7 1-2.4 2.8-2.4 2.8l-5.8-5.7"/><path d="m16.8 13c0-.1 0-.1 0 0-.4.2-.8.3-1.3.3-1.5 0-2.8-1.2-2.8-2.8 0-1.5 1.2-2.8 2.8-2.8 1 0 1.8.5 2.3 1.3.6-1.1 1.5-2.1 2.6-2.8l-1-1-1.5 1.5c-.3-.2-.8-.3-1.1-.4v-2.3h-2.6v2.3c-.3.1-.8.2-1.1.4l-1.5-1.5-1.4 1.4 1.5 1.5c-.2.3-.3.8-.4 1.1h-2.3v2.6h2.3c.1.3.2.8.4 1.1l-1.5 1.5 1.4 1.4 1.5-1.5c.3.2.8.3 1.1.4v2.3h2.6v-2.3c.1 0 .1 0 .2-.1-.1-.5-.2-1.1-.2-1.6"/><path d="m24.8 6.2c-3.6 0-6.5 2.9-6.5 6.5s2.9 6.5 6.5 6.5 6.5-2.9 6.5-6.5-2.9-6.5-6.5-6.5m1.4 10h-1.4v-5l-.9.9-1-1 1.9-1.9v-.4h1.4v7.4"/></g></svg>