<svg xmlns="http://www.w3.org/2000/svg" viewBox="0 0 38 38" enable-background="new 0 0 38 38"><g fill="#fff"><path d="M 10,7 H13 V11 H10 z"/><path d="M 28 9 28 11 28 12 26.3 12 24.2 12 23 12 23 11 23 9 14 9 14 12 9 12 9 9 6.1 9 6 15 31 15 31 9"/><path d="M 24,7 H27 V11 H24 z"/><path d="M31,16L31,16L31,16C31,16,31,16,31,16z"/><path d="M18.6,22.5c0-2.7,1.4-5.1,3.4-6.5h-2.7H6v14h15.9C20.1,27.4,18.6,24.5,18.6,22.5z"/><path d="M26.5,16c-3.6,0-6.5,2.9-6.5,6.5c0,3.1,5.1,9.5,6.5,11.2C27.9,32,33,25.6,33,22.5
	C33,18.9,30.1,16,26.5,16z M26.5,26.2c-2,0-3.7-1.7-3.7-3.7c0-0.6,0.2-1.3,0.5-1.8l1.2,0.7c-0.2,0.3-0.3,0.7-0.3,1.1
	c0,1.3,1,2.3,2.3,2.3s2.3-1,2.3-2.3c0-1.1-0.8-2-1.8-2.2V22l-3.4-2.5L27,17v1.9c1.8,0.2,3.2,1.8,3.2,3.6
	C30.2,24.5,28.5,26.2,26.5,26.2z"/></g></svg>