<svg xmlns="http://www.w3.org/2000/svg" viewBox="0 0 38 38" enable-background="new 0 0 38 38"><g fill="#fff"><path d="m27 9v21h-16v2h18v-23z"/><path d="m17.8 15.1c-1.2 0-2.3 1.8-2.3 2.9 0 .9.7 1.5 1.3 1.5.9 0 1.5-1 1.8-1.5.1-.3.3-.9.5-1.4.1-.5 0-1-.2-1.2-.2-.2-.6-.3-1.1-.3"/><path d="m9 6v23h17v-23h-17m11.5 13.5c.9 0 2.1-1.9 2.1-3.4 0-2.4-1.5-3.7-4.4-3.7-4.3 0-5.9 3.4-5.9 5.6 0 2.7 2.4 4.7 5.5 4.7 3 0 4.1-1.5 4.1-1.5l.2-.3.3.2 1 .7-.1.2c-.2.4-1.9 2.2-5.4 2.2-4 0-7.1-2.7-7.1-6.3 0-3.5 2.7-7.2 7.6-7.2 5.4 0 6 3.7 6 5.3 0 2.2-1.8 5-3.7 5-.7 0-1.3-.3-1.7-.8-.6.5-1.3.8-2 .8-1.4 0-2.9-1.2-2.9-3.1 0-1.8 1.6-4.5 3.8-4.5.9 0 1.7.2 2.2.7l.2-.5 1.4.6-.1.3c-1 2.6-1.5 3.9-1.6 4.2-.1.8.3.8.5.8"/></g></svg>