<svg xmlns="http://www.w3.org/2000/svg" viewBox="-91 6 38 38" enable-background="new -91 6 38 38"><path d="m-71.4 36c-6.6 0-11.6-4.3-11.6-10.1 0-4.8 3.3-11.9 12.5-11.9 7.9 0 9.5 4.4 9.5 8 0 3.1-2.5 7.5-4.9 7.5-1.6 0-1.8-1.4-1.8-2.2.1-.7 1.7-4.8 3.2-8.5l-1.8-.8c-.2.5-.4 1-.6 1.5-.1-.2-.3-.4-.4-.6-.9-1-2.2-1.5-4.1-1.5-4.1 0-7.1 5.2-7.1 8.5 0 3.4 2.7 5.6 5.2 5.6 1.8 0 3.2-.9 4.2-2 .5 1.1 1.6 2 3.3 2 3.6 0 6.9-5.3 6.9-9.5 0-3-1.1-10-11.5-10-9.5 0-14.6 7.2-14.6 13.9 0 6.9 5.8 12.1 13.6 12.1 7.4 0 10.3-3.9 10.4-4.1l-1.6-1.2c-.1.2-2.5 3.3-8.8 3.3m-1.9-6.4c-1.6 0-3.2-1.4-3.2-3.6 0-2.5 2.4-6.5 5.2-6.5 1.2 0 2.1.3 2.6.8.5.6.7 1.6.5 3-.4 1.1-.8 2.2-1 3-.6 1-2 3.3-4.1 3.3" fill="#fff"/></svg>