<svg xmlns="http://www.w3.org/2000/svg" viewBox="-91 6 38 38" enable-background="new -91 6 38 38"><g fill="#fff"><path d="m-75.7 27.1l-.7-.1c-4.5-.4-7.6-2.6-7.6-5.3v-.7h1.5v.8c0 1.8 2.7 3.4 6.2 3.8l.7.1-.1 1.4"/><path d="m-75.2 33.4h-.8c-3.9 0-8-1.6-8-4.3v-.8h1.5v.8c0 1.3 2.9 2.8 6.5 2.8h.8v1.5"/><path d="m-75.8 30.2h-.8c-3.6 0-7.5-2-7.5-4.9v-.8h1.5v.8c0 1.7 2.9 3.4 6 3.4h.8v1.5"/><path d="m-66.8 19.9c.6 0 1.2.1 1.8.2l1.1-.5c0-2.5-4.1-4.6-9.2-4.6s-9.2 2.1-9.2 4.6c0 2.2 2.7 4.1 6.9 4.5l.7-.3c1.8-2.3 4.6-3.9 7.9-3.9"/><path d="m-66.8 21.1c-4.3 0-7.8 3.5-7.8 7.8s3.5 7.8 7.8 7.8c4.3 0 7.8-3.5 7.8-7.8s-3.5-7.8-7.8-7.8m1.7 11.5h-1-1-1v-1h1v-5.2l-.7.5-.5-.8 1.3-.8v-.7h1v7h1v1h-.1"/></g></svg>