<svg xmlns="http://www.w3.org/2000/svg" viewBox="0 0 38 38" enable-background="new 0 0 38 38"><g fill="none" stroke="#fff" stroke-miterlimit="10"><path d="M 27.5,12.5 20,20"/><path d="M 27.5 7.5 27.5 12.5 32.5 12.5"/><path d="M 29.5 6.5 29.5 10.5 33.5 10.5"/><path d="M 31.5 4.5 31.5 8.5 35.5 8.5"/></g><g fill="#fff"><path d="M11.5,21.5c0,3.9,3.1,7,7,7s7-3.1,7-7c0-1-0.2-2-0.6-2.9L22,21.5c0,1.9-1.6,3.5-3.5,3.5c-1.9,0-3.5-1.6-3.5-3.5
	c0-1.9,1.5-3.5,3.5-3.5l2.9-2.9c-0.9-0.4-1.8-0.6-2.9-0.6C14.6,14.5,11.5,17.6,11.5,21.5z"/><path d="M16.5,21.5c0,1.1,0.9,2,2,2c0.6,0,1.1-0.3,1.5-0.7L17.2,20C16.8,20.4,16.5,20.9,16.5,21.5z"/><path d="M26,17.5c0.6,1.2,1,2.5,1,4c0,4.7-3.8,8.5-8.5,8.5S10,26.2,10,21.5s3.8-8.5,8.5-8.5c1.4,0,2.8,0.4,4,1l2.2-2.2
	c-1.8-1.1-3.9-1.8-6.2-1.8C12.1,10,7,15.1,7,21.5C7,27.9,12.1,33,18.5,33S30,27.9,30,21.5c0-2.3-0.7-4.4-1.8-6.2L26,17.5z"/></g></svg>