<svg xmlns="http://www.w3.org/2000/svg" viewBox="-91 6 38 38" enable-background="new -91 6 38 38"><g fill="#fff"><path d="m-80.2 30c-.7 0-1.4.2-2 .5-.6.2-1.1.5-1.5.9-.3.2-.6.5-.8.8-.3.3-.5.6-.7 1-.2.3-.4.7-.5 1.1-.2.5-.3 1.1-.3 1.7 2.3 0 10 0 12.5 0 0-1.2-.4-2.4-1.1-3.4-.2-.3-.5-.6-.8-.9-1-1-2.4-1.6-4-1.7-.1 0-.3 0-.4 0-.1 0-.3 0-.4 0"/><path d="m-81.8 28.4c.1.1.2.1.3.2.4.2.8.4 1.3.4.1 0 .3 0 .4 0 .2 0 .5 0 .7-.1.7-.1 1.3-.5 1.8-1 .6-.6 1-1.5 1-2.5s-.4-1.9-1-2.5c-.5-.5-1.1-.8-1.8-1-.2 0-.5-.1-.7-.1-.6 0-1.2.2-1.7.4-.1.1-.2.1-.3.2-.3.2-.5.4-.7.6-.5.6-.8 1.4-.8 2.2 0 .9.3 1.6.8 2.2.2.6.5.8.7 1"/><path d="m-65 18v3h4v1h-4v2h4v1h-4v2h4v1h-4v2h4v1h-4v5h7v-18z"/><path d="m-81 14v7c1.1-.2 2.1-.2 3.2 0 .8.2 1.5.5 2 1h.8v.9c.5.7.8 1.6.8 2.5 0 1.2-.5 2.3-1.3 3.2-.3.3-.6.5-1 .7.5.2 1 .4 1.5.6.5.3.9.6 1.3 1 .3.3.6.7.9 1 .8 1.2 1.2 2.5 1.2 3.9h5.6v-21.8h-15m6 5h-3v-1h3v1m6 12h-3v-1h3v1m0-4h-3v-1h3v1m0-4h-3v-1h3v1m0-4h-3v-1h3v1"/></g></svg>