<svg xmlns="http://www.w3.org/2000/svg" viewBox="0 0 38 38" enable-background="new 0 0 38 38"><g fill="#fff"><path d="m27.9 17.3c0-3.7-1.5-5.6-3.8-5.6-.5 0-1.1-.6-1.1-.6 0-1.5 0-2.1 0-2.1h-3c0 0 0 .6 0 2.1 0 0-.6.6-1.1.6-2.3 0-3.8 1.9-3.8 5.6 0 9-3.1 5.7-3.1 11.7 3.4 0 15.6 0 19 0 0-6-3.1-2.7-3.1-11.7"/><path d="m11 21h2.4c.2-.9.3-2.1.3-3.7 0-.1 0-.2 0-.3-.4.2-.8.3-1.2.3-1.5 0-2.8-1.2-2.8-2.8 0-1.5 1.2-2.8 2.8-2.8.9 0 1.7.4 2.2 1.1.7-1.3 1.8-2.1 3-2.4l-1.3-1.3-1.5 1.5c-.3-.2-.6-.3-.9-.4v-2.2h-3v2.3c-.3.1-.6.2-.9.4l-1.5-1.5-1.4 1.4 1.5 1.5c-.2.3-.3.6-.4.9h-2.3v3h2.3c.1.3.2.6.4.9l-1.5 1.5 1.4 1.4 1.5-1.5c.3.2.6.3.9.4v2.3"/><path d="m21.5 33c1.4 0 2.5-1.3 2.5-3-2.3 0-2.9 0-5 0 0 1.7 1.1 3 2.5 3"/></g></svg>