<svg xmlns="http://www.w3.org/2000/svg" viewBox="0 0 38 38" enable-background="new 0 0 38 38"><g fill="#fff"><path d="M19.3,11.9c-1.5,0-3.7,2.6-4.5,3.6c-0.2,0.2-0.3,0.4-0.4,0.5c-0.6,0.7-0.7,1-0.7,1.1
	c0,0,0.2,0.2,0.9,0.2c1.1,0.1,2.8-1,4-1.6c0.3-0.2,0.6-0.4,0.9-0.5l0.4-0.2l0.4,0.2c0.9,0.5,2.1,1.8,3.5,3.3
	c1.7,1.8,4.1,4.3,5.2,4.5c0.3,0.1,0.7,0.1,0.9-0.1c0.2-0.2,0.3-0.6,0.3-0.8l-2.8-8.3C25.4,13.3,20.8,11.9,19.3,11.9z"/><path d="M16.5,27.1l1.4-0.7c0.7,1.4,2.6,2.8,4.4,3.9c0.6,0,1.1-0.3,1.4-0.7c-1.9-1.2-4.1-2.8-5.1-4.6l1.4-0.7
	c0.9,1.8,3.8,3.6,5.8,4.8c0.7-0.1,1.1-0.6,1.2-1.1c-2-1.2-5-3.1-6.1-5.2l1.4-0.7c0.9,1.8,4,3.7,6,4.9c0.8-0.4,0.9-1.6,0.6-2.2
	c-0.1,0-0.2,0-0.3-0.1c-1.6-0.4-3.8-2.7-6-5c-1-1.1-2.1-2.2-2.8-2.7c-0.1,0.1-0.3,0.2-0.4,0.2c-1.4,0.8-3.3,2-4.9,1.9
	c-1.2-0.1-1.9-0.5-2.2-1.2c-0.3-0.8,0-1.7,1-2.8c0.1-0.1,0.2-0.3,0.4-0.5c0.2-0.3,0.5-0.6,0.8-1c-1.2,0-2.6,0.1-3.5,0.2l-2.5,8.6
	L8.2,23c0,0,7.1,6.8,10.6,8c0.7,0.3,1.2,0.2,1.6-0.1C18.8,29.8,17.3,28.5,16.5,27.1z"/><path d="M 3 11 3 22.9 6.4 22.9 9.5 12.7"/><path d="M 35 10.9 28.5 12 32.6 23.9 35 23.9"/></g></svg>