<svg xmlns="http://www.w3.org/2000/svg" viewBox="0 0 38 38" enable-background="new 0 0 38 38"><g fill="#ffffff"><path d="m37.5 26.3l-7.3-7.2c1.5-1.5 2.4-3.8 2.4-6.2 0-4.9-4-8.9-8.9-8.9s-8.9 4-8.9 8.9 4 8.9 8.9 8.9c1.9 0 3.6-.6 5.1-1.5l7.3 7.3 1.4-1.3m-13.6-21.3c4.1 0 7.7 3.7 7.7 7.8 0 4-3.6 7.4-6.6 7.6v-11.4h-7.8c1.3-2 3.9-4 6.7-4"/><path d="m14 13.5c0-.8 0-2.5 0-2.5h-11v16h2.8l.2 5.7 5.8-5.7h10.2v-3.7c-5-1.1-8-5.1-8-9.8m-2.9 10.6c0-.6.4-.9.9-.9.6 0 .9.4.9.9s-.3.9-.8.9c-.6-.2-1-.5-1-.9m1.9-2.1h-2v-7h2v7"/></g></svg>