<svg xmlns="http://www.w3.org/2000/svg" viewBox="0 0 38 38" enable-background="new 0 0 38 38"><g fill="#ffffff"><path d="m21.3 18.2c2.6 0 4.7-2.2 5.3-4.2h1.6c-.7 3-3.2 5.7-7.2 5.7v.9c4 0 7.3-3.6 8.1-6.6h-.1v-2h-2.4c-.6-3-2.7-4.5-5.3-4.5-3 0-5.5 2.3-5.5 5.3 0 3.3 2.5 5.4 5.5 5.4"/><path d="m16 21.2v7.8c6 0 12.9 0 15.8 0 0-5-2.7-6.9-6.5-8.2-1.1.6-2.6 1.2-4 1.2h-.3v-1.6c-2 0-3 .3-5 .8"/><path d="m5 24h9v1h-9z"/><path d="m5 26h9v1h-9z"/><path d="m5 28h9v1h-9z"/><path d="m9 16h1v6h-1z"/><path d="m12.2 20.8l-.6-.5-2.1 1.7-2-1.7-.5.5 2 1.6.5.6.7-.6z"/></g></svg>