<svg xmlns="http://www.w3.org/2000/svg" viewBox="0 0 38 38" enable-background="new 0 0 38 38"><g fill="#fff"><path d="m24 8v11c.6.3 1 1.2 1.4 2 .3.7.7 1.5 1.2 1.9.1-1.1.2-3.9.2-6.5l-.4.4-1.1-1.1 1.1-1.1-1-1 1.1-1.1 1 1 1-1 1.1 1.1-1 1 1 1-1.1 1.1-.3-.3c.1 7.1-.4 7.6-.6 7.8l-.6.2c-1.6 0-2.3-1.6-2.9-2.8 0-.1-.1-.2-.2-.3v6.7l7 2v-20l-6.9-2"/><path d="m13.1 18.4c-.3-.4-.7-.9-1-1.3-.1 1.3 0 2.5 0 3.2.9.3 1.6 1.2 1.6 2.2 0 1.3-1 2.3-2.3 2.3s-2.3-1-2.3-2.3c0-1 .7-1.9 1.6-2.2 0-.8-.1-2.3 0-3.9 0-.7.3-1.1.8-1.2.9-.2 1.6.7 2.7 2.4.2.3.5.7.7 1v-8.6l-6.9-2v20l7 2v-9.4c-.5-.3-1-1-1.9-2.2"/><circle cx="11.5" cy="22.5" r=".7"/><path d="m16.9 17.9c.9-1.3 1.8-2.5 2.8-2.1.7.2 1.5.9 2.2 1.7.3.3.7.7 1 1v-10.5l-7 2v9c.4-.3.7-.8 1-1.1"/><path d="m21 18.4c-.6-.5-1.2-1.2-1.6-1.3-.3.2-1 1-1.3 1.6-.7.9-1.3 1.8-2 2.1v9.2l7-2v-8c-.8-.3-1.4-.9-2.1-1.6"/></g></svg>