<svg xmlns="http://www.w3.org/2000/svg" viewBox="0 0 38 38" enable-background="new 0 0 38 38"><g fill="#fff"><path d="m26.2 8v1c0 1.2-1 2.2-2.2 2.2h-9c-1.2 0-2.2-1-2.2-2.2v-1h-2.8v25h19v-25h-2.8m-8.1 18.9l-1.1 1.1-1.4-1.4-1.4 1.4-1.1-1.1 1.4-1.4-1.4-1.4 1.1-1.1 1.4 1.4 1.4-1.4 1.1 1.1-1.4 1.4 1.4 1.4m-3.6-6.3l-2.1-2.1 1.1-1.1.9.9 2.9-2.9 1.1 1.1-3.9 4.1m11.5 7.4h-6v-1h6v1m0-2h-6v-1h6v1m0-2h-6v-1h6v1m0-4h-6v-1h6v1m0-2h-6v-1h6v1m0-2h-6v-1h6v1"/><path d="m21.9 7c.1-.2.1-.3.1-.5 0-1.4-1.1-2.5-2.5-2.5s-2.5 1.1-2.5 2.5c0 .2 0 .3.1.5h-3.1v2c0 .6.4 1 1 1h9c.6 0 1-.4 1-1v-2h-3.1m-2.4 1.2c-.9 0-1.7-.8-1.7-1.7s.8-1.7 1.7-1.7 1.7.8 1.7 1.7-.8 1.7-1.7 1.7"/></g></svg>